<svg width="136" height="42" viewBox="0 0 136 42" fill="none" xmlns="http://www.w3.org/2000/svg">
<path d="M6.01475 29.1929C5.18388 29.1929 4.39817 29.1116 3.65762 28.949C2.93512 28.8045 2.29391 28.5607 1.73398 28.2175C1.19211 27.8563 0.767649 27.3776 0.46059 26.7816C0.153531 26.1674 0 25.4088 0 24.5057C0 23.6568 0.171592 22.9162 0.514776 22.2841C0.876022 21.6519 1.41789 21.1642 2.14038 20.821C2.86288 20.4778 3.77502 20.3062 4.87682 20.3062C5.49094 20.3062 6.087 20.3694 6.66499 20.4959C7.24299 20.6223 7.75776 20.7939 8.20932 21.0107C8.67894 21.2274 9.04922 21.4622 9.32015 21.7151L9.48271 23.6658C9.12147 23.4491 8.68797 23.2775 8.18223 23.151C7.67648 23.0246 7.13461 22.9614 6.55662 22.9614C5.67156 22.9614 5.02132 23.0969 4.60589 23.3678C4.20852 23.6207 4.00983 24.0271 4.00983 24.587C4.00983 24.9302 4.10918 25.2372 4.30786 25.5082C4.50655 25.7791 4.76845 25.9868 5.09357 26.1313C5.43675 26.2758 5.78897 26.3481 6.15022 26.3481C7.07139 26.3481 7.7126 26.2849 8.07385 26.1584C8.45316 26.032 8.64281 25.7791 8.64281 25.3998V20.3604C8.64281 19.5296 8.37188 18.9335 7.83001 18.5723C7.3062 18.1929 6.55662 18.0033 5.58125 18.0033C4.78651 18.0033 3.98274 18.1478 3.16994 18.4368C2.37519 18.7077 1.72495 19.0419 1.21921 19.4392V15.8629C1.68883 15.5739 2.41132 15.303 3.38668 15.0501C4.38011 14.7972 5.49094 14.6708 6.71918 14.6708C7.15267 14.6708 7.63133 14.7069 8.15513 14.7792C8.67894 14.8514 9.20275 14.9869 9.72655 15.1856C10.2504 15.3662 10.729 15.6371 11.1625 15.9984C11.6141 16.3596 11.9753 16.8202 12.2462 17.3801C12.5172 17.9401 12.6526 18.6355 12.6526 19.4663L12.6256 25.9417C12.6256 26.7183 12.3636 27.3505 11.8398 27.8382C11.316 28.3078 10.5574 28.651 9.56399 28.8678C8.58863 29.0845 7.40555 29.1929 6.01475 29.1929Z" fill="#1B3F73"/>
<path d="M16.2362 16.2422C16.5794 16.0616 17.0309 15.881 17.5908 15.7003C18.1508 15.5017 18.7649 15.3301 19.4332 15.1856C20.1015 15.0411 20.7698 14.9237 21.4381 14.8334C22.1245 14.743 22.7567 14.6979 23.3347 14.6979C24.5629 14.6979 25.6105 14.8604 26.4775 15.1856C27.3445 15.4926 28.0038 15.9984 28.4553 16.7028C28.9249 17.4072 29.1598 18.3645 29.1598 19.5747V28.7865H25.1228V20.3875C25.1228 20.0443 25.0686 19.7282 24.9603 19.4392C24.87 19.1502 24.7255 18.9064 24.5268 18.7077C24.3281 18.491 24.0572 18.3284 23.714 18.22C23.3708 18.0936 22.9554 18.0304 22.4677 18.0304C22.0522 18.0304 21.6368 18.0846 21.2214 18.1929C20.8059 18.2833 20.4899 18.3826 20.2731 18.491V28.7865H16.2362V16.2422Z" fill="#1B3F73"/>
<path d="M38.0295 29.1929C37.1986 29.1929 36.4129 29.1116 35.6723 28.949C34.9499 28.8045 34.3086 28.5607 33.7487 28.2175C33.2068 27.8563 32.7824 27.3776 32.4753 26.7816C32.1683 26.1674 32.0147 25.4088 32.0147 24.5057C32.0147 23.6568 32.1863 22.9162 32.5295 22.2841C32.8908 21.6519 33.4326 21.1642 34.1551 20.821C34.8776 20.4778 35.7898 20.3062 36.8916 20.3062C37.5057 20.3062 38.1017 20.3694 38.6797 20.4959C39.2577 20.6223 39.7725 20.7939 40.224 21.0107C40.6937 21.2274 41.0639 21.4622 41.3349 21.7151L41.4974 23.6658C41.1362 23.4491 40.7027 23.2775 40.197 23.151C39.6912 23.0246 39.1493 22.9614 38.5713 22.9614C37.6863 22.9614 37.0361 23.0969 36.6206 23.3678C36.2232 23.6207 36.0246 24.0271 36.0246 24.587C36.0246 24.9302 36.1239 25.2372 36.3226 25.5082C36.5213 25.7791 36.7832 25.9868 37.1083 26.1313C37.4515 26.2758 37.8037 26.3481 38.1649 26.3481C39.0861 26.3481 39.7273 26.2849 40.0886 26.1584C40.4679 26.032 40.6575 25.7791 40.6575 25.3998V20.3604C40.6575 19.5296 40.3866 18.9335 39.8447 18.5723C39.3209 18.1929 38.5713 18.0033 37.596 18.0033C36.8012 18.0033 35.9975 18.1478 35.1847 18.4368C34.3899 18.7077 33.7397 19.0419 33.2339 19.4392V15.8629C33.7036 15.5739 34.426 15.303 35.4014 15.0501C36.3948 14.7972 37.5057 14.6708 38.7339 14.6708C39.1674 14.6708 39.6461 14.7069 40.1699 14.7792C40.6937 14.8514 41.2175 14.9869 41.7413 15.1856C42.2651 15.3662 42.7437 15.6371 43.1772 15.9984C43.6288 16.3596 43.99 16.8202 44.261 17.3801C44.5319 17.9401 44.6674 18.6355 44.6674 19.4663L44.6403 25.9417C44.6403 26.7183 44.3784 27.3505 43.8546 27.8382C43.3308 28.3078 42.5721 28.651 41.5787 28.8678C40.6034 29.0845 39.4203 29.1929 38.0295 29.1929Z" fill="#1B3F73"/>
<path d="M52.2607 28.7865H48.2509V9.90234H52.2607V28.7865Z" fill="#1B3F73"/>
<path d="M58.8248 34.0968C58.3732 34.0968 57.9307 34.0516 57.4972 33.9613C57.0637 33.871 56.6934 33.7536 56.3864 33.6091V30.3308C56.6754 30.4392 56.9463 30.5114 57.1992 30.5476C57.452 30.6017 57.7139 30.6288 57.9849 30.6288C58.4364 30.6288 58.8248 30.5205 59.1499 30.3037C59.4931 30.105 59.773 29.7528 59.9898 29.2471C60.2065 28.7594 60.3781 28.0911 60.5046 27.2422L60.5858 29.5451L54.7066 15.0772H59.3395L62.4553 24.6954H62.0489L65.1375 15.0772H69.4725L64.0809 29.0032C63.5932 30.2676 63.0604 31.2701 62.4824 32.0106C61.9224 32.7512 61.3354 33.284 60.7213 33.6091C60.1072 33.9342 59.475 34.0968 58.8248 34.0968Z" fill="#1B3F73"/>
<path d="M77.5131 29.3284C75.9236 29.3284 74.7405 28.9581 73.9639 28.2175C73.1872 27.4589 72.7989 26.3932 72.7989 25.0205V18.1658H70.7939V15.0772H72.7989V11.3112H77.0254V15.0772H80.0328V18.1658H77.0254V24.5057C77.0254 24.9753 77.1248 25.3276 77.3235 25.5624C77.5221 25.7791 77.8563 25.8875 78.3259 25.8875C78.5969 25.8875 78.8949 25.8333 79.22 25.7249C79.5451 25.6165 79.816 25.4811 80.0328 25.3185V28.7865C79.6535 28.9852 79.2381 29.1206 78.7865 29.1929C78.353 29.2832 77.9285 29.3284 77.5131 29.3284Z" fill="#1B3F73"/>
<path d="M83.178 28.7865V15.2668H87.2149L87.242 28.7865H83.178ZM83.0967 13.2077V10.092H87.2691V13.2077H83.0967Z" fill="#1B3F73"/>
<path d="M97.2702 29.1387C96.2948 29.1387 95.3736 28.9942 94.5066 28.7052C93.6396 28.4162 92.872 27.9827 92.2037 27.4047C91.5354 26.8267 91.0116 26.0952 90.6323 25.2101C90.253 24.3251 90.0633 23.2955 90.0633 22.1215C90.0633 20.8752 90.2439 19.7915 90.6052 18.8703C90.9664 17.931 91.4631 17.1544 92.0953 16.5402C92.7456 15.9261 93.5042 15.4655 94.3712 15.1585C95.2382 14.8514 96.1954 14.6979 97.2431 14.6979C97.9836 14.6979 98.7422 14.7792 99.5189 14.9417C100.314 15.0862 101.009 15.2939 101.605 15.5649V19.0328C100.973 18.7438 100.35 18.509 99.7357 18.3284C99.1396 18.1297 98.5255 18.0304 97.8933 18.0304C96.7554 18.0304 95.8342 18.3194 95.1298 18.8974C94.4434 19.4573 94.1002 20.3785 94.1002 21.6609C94.1002 23.0156 94.4073 24.0361 95.0214 24.7225C95.6355 25.4088 96.6561 25.752 98.083 25.752C98.7513 25.752 99.3925 25.6346 100.007 25.3998C100.639 25.165 101.181 24.9212 101.632 24.6683V28.1091C101 28.4343 100.341 28.6871 99.6544 28.8678C98.968 29.0484 98.1733 29.1387 97.2702 29.1387Z" fill="#1B3F73"/>
<path d="M109.711 24.1863L111.768 21.5778L112.167 21.072L111.848 20.4959L110.46 17.9811C109.999 17.1422 109.528 16.3069 109.061 15.4716C108.594 14.6363 108.126 13.801 107.65 12.9693C107.437 12.5967 107.226 12.224 107.013 11.8496L107.324 11.8442L109.24 11.8064L111.156 11.7614L112.65 11.72L113.805 13.6156L115.224 15.9054L115.63 16.5625L116.122 16.0351C116.662 15.4554 117.208 14.8793 117.746 14.2961C118.286 13.7146 118.823 13.1313 119.358 12.5445L120.954 10.7767C121.22 10.4833 121.481 10.1826 121.744 9.8856C122.007 9.58857 122.27 9.28974 122.528 8.9873C122.22 9.23753 121.914 9.49316 121.61 9.74698C121.306 10.0008 121 10.2546 120.7 10.5139L118.893 12.062C118.294 12.5805 117.696 13.1025 117.102 13.6264C116.698 13.981 116.295 14.3375 115.895 14.6957L114.991 12.9369L113.743 10.5499L113.544 10.1718L113.074 10.1592L111.158 10.1052L109.242 10.0602L107.326 10.0224L105.41 9.99181L103.834 9.96661L104.593 11.3924C105.043 12.2384 105.507 13.0755 105.963 13.918C106.419 14.7605 106.882 15.5994 107.346 16.4365C107.809 17.2754 108.269 18.1143 108.739 18.9478L109.83 20.8938L108.219 23.0198L106.228 25.6805C104.909 27.4609 103.594 29.2449 102.301 31.045C101.004 32.8416 99.7215 34.6508 98.4567 36.4744C97.8235 37.3853 97.1956 38.2998 96.5766 39.2215C95.9541 40.1396 95.3387 41.0649 94.7358 41.9992C95.489 41.1819 96.2278 40.3538 96.9594 39.5203C97.6964 38.6905 98.4227 37.8534 99.1454 37.0127C100.591 35.3313 102.018 33.6373 103.432 31.9289C104.847 30.2242 106.244 28.505 107.634 26.7804L109.711 24.1863Z" fill="#4EB94D"/>
<path d="M133.019 2.47526C132.282 3.30515 131.556 4.14224 130.833 4.98293C129.387 6.66431 127.96 8.35829 126.547 10.0667C125.132 11.7715 123.735 13.4906 122.345 15.2152L120.269 17.8111L118.212 20.4196L117.813 20.9254L118.132 21.5015L119.52 24.0164C119.981 24.8552 120.452 25.6905 120.919 26.5258C121.386 27.3611 121.854 28.1964 122.33 29.0281C122.543 29.4007 122.754 29.7734 122.967 30.1478L122.656 30.1532L120.74 30.191L118.824 30.236L117.33 30.2774L116.175 28.3818L114.756 26.092L114.35 25.4349L113.858 25.9624C113.318 26.542 112.772 27.1181 112.234 27.7013C111.694 28.2828 111.157 28.8661 110.622 29.4529L109.026 31.2207C108.76 31.5142 108.499 31.8148 108.236 32.1118C107.973 32.4088 107.71 32.7077 107.452 33.0101C107.76 32.7599 108.066 32.5043 108.37 32.2504C108.674 31.9966 108.98 31.7428 109.28 31.4835L111.087 29.9354C111.686 29.4169 112.284 28.8949 112.878 28.371C113.282 28.0164 113.685 27.6599 114.085 27.3017L114.989 29.0605L116.237 31.4475L116.436 31.8256L116.906 31.8382L118.822 31.8922L120.738 31.9372L122.654 31.975L124.57 32.0056L126.146 32.0308L125.387 30.6051C124.937 29.759 124.473 28.9219 124.017 28.0794C123.561 27.2369 123.098 26.398 122.634 25.5609C122.171 24.722 121.711 23.8831 121.241 23.0497L120.15 21.1054L121.761 18.9794L123.752 16.3187C125.071 14.5383 126.386 12.7544 127.679 10.9542C128.976 9.15757 130.259 7.34838 131.523 5.52479C132.157 4.61389 132.785 3.69939 133.403 2.7777C134.026 1.8596 134.641 0.934299 135.244 0C134.489 0.813687 133.751 1.64177 133.019 2.47526Z" fill="#4EB94D"/>
</svg>
